<svg width="25" height="25" viewBox="0 0 25 25" fill="none" xmlns="http://www.w3.org/2000/svg">
<path fill-rule="evenodd" clip-rule="evenodd" d="M12.0923 3.88721C7.12373 3.88721 3.09229 7.91866 3.09229 12.8872C3.09229 17.8558 7.12373 21.8872 12.0923 21.8872C17.0511 21.8872 21.0923 17.8558 21.0923 12.8872C21.0923 7.91866 17.0511 3.88721 12.0923 3.88721ZM18.037 8.0358C19.1107 9.34383 19.755 11.013 19.7745 12.8189C19.5207 12.7701 16.9827 12.2527 14.4253 12.5748C14.3667 12.4479 14.3179 12.3113 14.2593 12.1746C14.1031 11.8037 13.9275 11.423 13.7517 11.0618C16.5825 9.91001 17.871 8.25055 18.037 8.0358ZM12.0923 5.21476C14.0446 5.21476 15.8309 5.94687 17.1878 7.14752C17.0511 7.34274 15.8895 8.8948 13.1563 9.91974C11.8971 7.6063 10.5012 5.71259 10.2865 5.41975C10.8623 5.28309 11.4676 5.21476 12.0923 5.21476ZM8.82225 5.9371C9.02723 6.21042 10.3938 8.11389 11.6726 10.3785C8.08036 11.3352 4.90791 11.3156 4.56626 11.3156C5.06409 8.93385 6.67472 6.95228 8.82225 5.9371ZM4.40032 12.897C4.40032 12.8189 4.40032 12.7408 4.40032 12.6627C4.7322 12.6724 8.46105 12.7213 12.2973 11.5694C12.5218 11.9989 12.7268 12.4382 12.922 12.8774C12.8244 12.9067 12.717 12.936 12.6194 12.9653C8.65627 14.244 6.54782 17.7386 6.37212 18.0314C5.15194 16.6746 4.40032 14.8688 4.40032 12.897ZM12.0923 20.5792C10.3157 20.5792 8.67581 19.974 7.37754 18.9588C7.5142 18.6757 9.07599 15.6692 13.4101 14.1562C13.4296 14.1464 13.4394 14.1464 13.4589 14.1367C14.5424 16.9382 14.9817 19.2906 15.0988 19.9642C14.1715 20.3644 13.1563 20.5792 12.0923 20.5792ZM16.3775 19.2614C16.2995 18.7928 15.8895 16.5477 14.884 13.7852C17.2951 13.4045 19.4036 14.0293 19.6672 14.1172C19.3353 16.2549 18.1053 18.0998 16.3775 19.2614Z" fill="#13678B"/>
</svg>
