<?xml version="1.0" encoding="UTF-8"?>
<svg id="_Слой_1" data-name="Слой 1" xmlns="http://www.w3.org/2000/svg" viewBox="0 0 1510.2 1990.68">
  <defs>
    <style>
      .cls-1 {
        stroke-width: 0px;
      }
    </style>
  </defs>
  <path class="cls-1" d="M685.88,1447.52h-41.8c-5.02-15.88-11.43-31.27-19.17-46.02l29.62-29.62c11.12-11.12,11.12-29.15,0-40.26l-80.52-80.52c-11.12-11.12-29.15-11.12-40.26,0l-29.62,29.62c-14.75-7.74-30.14-14.15-46.03-19.17v-41.79c0-15.72-12.75-28.47-28.47-28.47h-113.88c-15.73,0-28.47,12.75-28.47,28.47v41.79c-15.89,5.02-31.28,11.43-46.03,19.17l-29.62-29.62c-11.12-11.12-29.15-11.12-40.26,0l-80.52,80.52c-11.12,11.12-11.12,29.15,0,40.26l29.62,29.62c-7.73,14.76-14.15,30.14-19.17,46.02h-41.8c-15.72,0-28.47,12.75-28.47,28.47v113.88c0,15.73,12.75,28.47,28.47,28.47h41.79c5.02,15.89,11.43,31.28,19.17,46.03l-29.62,29.62c-11.12,11.12-11.12,29.15,0,40.26l80.52,80.52c11.12,11.12,29.15,11.12,40.26,0l29.62-29.62c14.75,7.73,30.14,14.15,46.03,19.17v41.79c0,15.72,12.75,28.47,28.47,28.47h113.88c15.72,0,28.47-12.75,28.47-28.47v-41.79c15.89-5.02,31.28-11.43,46.03-19.17l29.62,29.62c11.12,11.12,29.15,11.12,40.26,0l80.52-80.52c11.12-11.12,11.12-29.15,0-40.26l-29.62-29.62c7.73-14.75,14.15-30.14,19.17-46.03h41.79c15.72,0,28.47-12.75,28.47-28.47v-113.88c0-15.72-12.75-28.47-28.47-28.47Z"/>
  <path class="cls-1" d="M373.56,31.67C218.67,170.78,121.22,372.72,121.22,597.42c0,40.31,3.16,79.91,9.21,118.52,1.03,6.54,5.61,11.92,11.8,14.26,85.74,32.52,160.49,87.54,217.06,157.78,7.36,9.14,21.18,9.14,28.55,0,56.57-70.24,131.31-125.26,217.06-157.78,6.19-2.35,10.77-7.72,11.8-14.26,6.05-38.61,9.21-78.2,9.21-118.52,0-224.69-97.45-426.64-252.34-565.75h0Z"/>
  <path class="cls-1" d="M1358.25,1111.2h-39.19c-4.7-14.89-10.72-29.31-17.97-43.15l27.77-27.77c10.42-10.42,10.42-27.33,0-37.75l-75.49-75.49c-10.42-10.42-27.33-10.42-37.75,0l-27.77,27.77c-13.83-7.25-28.26-13.27-43.15-17.97v-39.18c0-14.74-11.95-26.69-26.69-26.69h-106.77c-14.74,0-26.69,11.95-26.69,26.69v39.18c-14.9,4.7-29.32,10.72-43.15,17.97l-27.77-27.77c-10.42-10.42-27.33-10.42-37.75,0l-75.49,75.49c-10.42,10.42-10.42,27.33,0,37.75l27.77,27.77c-7.25,13.84-13.27,28.26-17.97,43.15h-39.19c-14.74,0-26.69,11.95-26.69,26.69v106.77c0,14.74,11.95,26.69,26.69,26.69h39.18c4.7,14.9,10.72,29.32,17.97,43.15l-27.77,27.77c-10.42,10.42-10.42,27.33,0,37.75l75.49,75.49c10.42,10.42,27.33,10.42,37.75,0l27.77-27.77c13.83,7.25,28.26,13.27,43.15,17.97v39.18c0,14.74,11.95,26.69,26.69,26.69h106.77c14.74,0,26.69-11.95,26.69-26.69v-39.18c14.89-4.7,29.32-10.72,43.15-17.97l27.77,27.77c10.42,10.42,27.33,10.42,37.75,0l75.49-75.49c10.42-10.42,10.42-27.33,0-37.75l-27.77-27.77c7.25-13.83,13.27-28.26,17.97-43.15h39.18c14.74,0,26.69-11.95,26.69-26.69v-106.77c0-14.74-11.95-26.69-26.69-26.69ZM1064.62,1384.49c-106.68,0-193.2-86.52-193.2-193.21s86.52-193.2,193.2-193.2,193.21,86.52,193.21,193.2-86.52,193.21-193.21,193.21Z"/>
  <path class="cls-1" d="M1071.23,108.43c-174.09,0-315.22,141.13-315.22,315.22s141.13,315.22,315.22,315.22,315.22-141.13,315.22-315.22-141.13-315.22-315.22-315.22ZM1071.23,664.25c-132.88,0-240.6-107.72-240.6-240.6s107.72-240.6,240.6-240.6,240.6,107.72,240.6,240.6-107.72,240.6-240.6,240.6Z"/>
</svg>