<?xml version="1.0" encoding="UTF-8"?>
<svg id="_Слой_2" data-name="Слой 2" xmlns="http://www.w3.org/2000/svg" xmlns:xlink="http://www.w3.org/1999/xlink" viewBox="0 0 1437.06 2457.87">
  <defs>
    <style>
      .cls-1 {
        fill: url(#_Безымянный_градиент_3);
        stroke-width: 0px;
      }
    </style>
    <linearGradient id="_Безымянный_градиент_3" data-name="Безымянный градиент 3" x1="718.53" y1="2479.51" x2="718.53" y2="21.63" gradientTransform="translate(0 2479.51) scale(1 -1)" gradientUnits="userSpaceOnUse">
      <stop offset="0" stop-color="#d0ffa3"/>
      <stop offset="1" stop-color="#00698b"/>
    </linearGradient>
  </defs>
  <g id="_Слой_1-2" data-name="Слой 1">
    <path class="cls-1" d="M1437.06,1610.98c0,114.83-9.01,227.63-26.26,337.63-2.86,18.27-15.4,33.6-32.65,40.11-167,63.21-319.36,156.43-450.55,272.94-15.04,13.37-37.9,11.76-50.73-3.82-10.33-12.59-20.71-24.83-30.98-36.64-22.38-25.84-44.23-49.66-63.98-70.61l-11.16-12.59c-9.55-10.33-8.89-26.5,1.43-36.05l13.31-12.29c30.32-26.74,61.59-52.28,93.7-76.69,92.39-70.25,192-130.71,297.52-180.48,16.53-7.82,27.81-23.82,29.48-42.02,5.43-59.62,8.24-119.61,8.24-179.47,0-479.97-178.64-941.93-495.91-1296.33-317.28,354.4-495.91,816.35-495.91,1296.33,0,59.86,2.81,119.85,8.24,179.53,1.67,18.21,13.01,34.2,29.6,42.02,35.69,16.83,70.73,34.98,105.04,54.26,71.98,41.24,169.14,108.21,241.78,165.2,25.78,21.19,51.03,43.15,75.56,65.89,1.91,1.79,3.94,3.35,6.03,4.78,32.77,33.9,95.85,97.59,156.13,171.59,11.7,14.38,11.04,35.27-1.85,48.64-29.36,30.62-57.41,62.49-84.03,95.55-20.95,25.96-60.28,25.91-81.23-.06-161.27-200.3-374.4-357.09-618.92-449.66-17.31-6.5-29.84-21.84-32.71-40.11C9.01,1838.61,0,1725.81,0,1610.98,0,971.17,277.47,396.12,718.53,0c441.06,396.12,718.53,971.17,718.53,1610.98Z"/>
  </g>
</svg>