<svg width="143" height="36" viewBox="0 0 143 36" fill="none" xmlns="http://www.w3.org/2000/svg">
<path d="M19.2881 35.8425C16.7645 35.7935 14.6501 34.9582 12.9319 33.1929C12.7061 32.9607 12.4974 32.9011 12.182 32.9542C8.44228 33.5917 4.683 31.6612 2.95253 28.2646C1.88882 26.1764 1.67118 24.0187 2.30452 21.772C2.37217 21.5317 2.32082 21.3789 2.17084 21.186C-0.093523 18.2724 -0.536126 15.0906 0.982418 11.7291C2.082 9.29523 4.00076 7.71459 6.58057 6.98883C6.96693 6.88013 7.1756 6.70687 7.32313 6.3113C8.97535 1.87422 14.285 -0.459151 18.6768 1.29476C19.866 1.7696 20.924 2.44224 21.81 3.36986C22.013 3.58318 22.2045 3.63467 22.4882 3.58645C26.3363 2.93261 30.1632 4.93906 31.857 8.45587C32.8278 10.4713 33.0104 12.5775 32.4007 14.7351C32.3216 15.0138 32.3738 15.1846 32.5466 15.3898C34.7702 18.0264 35.2006 21.8709 33.6397 24.9635C32.4317 27.3574 30.5561 28.9233 27.9608 29.6025C27.7 29.6711 27.5565 29.7847 27.4514 30.0479C26.1684 33.2533 23.8201 35.1527 20.4268 35.742C20.0274 35.8115 19.6166 35.8155 19.2881 35.8433V35.8425ZM19.6272 4.577C19.6378 4.51898 19.6484 4.46177 19.6581 4.40374C19.0933 4.09725 18.5488 3.74255 17.9603 3.49164C13.804 1.72138 9.02915 4.85979 8.98595 9.39085C8.9615 11.9506 8.98432 14.5104 8.97372 17.0701C8.97291 17.3431 9.0748 17.4894 9.30058 17.6144C9.98935 17.9961 10.6683 18.395 11.3514 18.7864C11.5315 18.8902 11.7125 18.9924 11.9749 19.1428C11.9749 18.8641 11.9749 18.6916 11.9749 18.5184C11.9749 15.9316 11.9749 13.3441 11.9766 10.7574C11.9766 10.3765 11.9766 9.99483 11.9904 9.61397C12.0051 9.20124 12.2015 8.88985 12.5586 8.68308C14.1317 7.77098 15.7065 6.86052 17.2797 5.94678C18.063 5.49155 18.8447 5.03305 19.6272 4.57619V4.577ZM22.7645 17.433C22.7515 17.5997 22.7401 17.679 22.7401 17.7591C22.7401 20.7283 22.7352 23.6976 22.745 26.6668C22.7466 27.2013 22.5868 27.632 22.1149 27.905C20.1081 29.0663 18.0972 30.222 16.0888 31.3817C15.744 31.5812 15.4065 31.7936 15.0691 31.998C15.118 32.0846 15.1261 32.1124 15.1449 32.1304C15.1946 32.177 15.246 32.2219 15.3006 32.2611C17.071 33.5263 19.0134 33.9014 21.0935 33.2672C23.8568 32.4254 25.672 29.9793 25.7136 27.0779C25.7494 24.5729 25.7315 22.0662 25.7486 19.5604C25.7503 19.2662 25.6606 19.0774 25.3973 18.9401C25.037 18.7521 24.6939 18.529 24.3409 18.3263C23.8388 18.0386 23.3335 17.755 22.7645 17.433ZM6.70447 9.37859C6.52107 9.43172 6.42733 9.44725 6.345 9.48484C4.82239 10.191 3.68857 11.2829 2.9941 12.8308C1.60108 15.9333 2.80092 19.6144 5.73367 21.2784C7.78693 22.443 9.8247 23.6354 11.8559 24.8369C12.2358 25.0616 12.5472 25.1605 12.9099 24.8369C13.0476 24.7134 13.2392 24.6505 13.4038 24.5549C14.0421 24.1822 14.6795 23.8079 15.378 23.3992C15.1319 23.2399 14.9574 23.1173 14.774 23.0102C12.3352 21.593 9.89887 20.1718 7.45192 18.7685C6.93759 18.4734 6.69469 18.0795 6.69713 17.4837C6.70936 15.0065 6.70365 12.5293 6.70447 10.0512C6.70447 9.85017 6.70447 9.64912 6.70447 9.37859ZM30.3426 13.4324C30.3841 13.2125 30.4306 13.0597 30.4412 12.9044C30.5496 11.3009 30.1689 9.83383 29.2454 8.50736C27.4163 5.88222 23.7475 4.94805 20.9501 6.48293C18.667 7.73584 16.4328 9.07783 14.1871 10.3986C14.051 10.4787 13.9394 10.7157 13.9345 10.8832C13.9076 11.8084 13.9165 12.7336 13.9173 13.6596C13.9173 13.747 13.9467 13.8337 13.9687 13.9538C14.0747 13.9113 14.1505 13.8909 14.2157 13.8525C16.7613 12.3764 19.3109 10.9061 21.8483 9.41619C22.3847 9.10153 22.868 9.07456 23.4084 9.39494C25.1234 10.4125 26.8506 11.4104 28.5738 12.414C29.1435 12.7458 29.7157 13.0719 30.3434 13.4324H30.3426ZM4.4238 23.1516C4.37245 23.172 4.32109 23.1925 4.26974 23.2129C4.26974 23.749 4.23225 24.2876 4.27545 24.8205C4.65692 29.5355 9.93555 32.3004 14.0168 29.9327C16.1638 28.6871 18.3132 27.4448 20.4643 26.205C20.6827 26.0791 20.8009 25.9361 20.7952 25.6582C20.7765 24.7739 20.7887 23.8888 20.7854 23.0037C20.7854 22.8786 20.7618 22.7544 20.7455 22.5967C20.5857 22.6661 20.4822 22.6996 20.3893 22.7536C17.8551 24.2239 15.3193 25.6901 12.7933 27.1735C12.3214 27.4506 11.8747 27.4775 11.4125 27.2103C9.66412 26.196 7.92061 25.1744 6.17302 24.1577C5.59185 23.8193 5.0066 23.4875 4.42298 23.1524L4.4238 23.1516ZM28.0065 27.1947C28.2543 27.0934 28.4067 27.0427 28.5493 26.9724C29.9317 26.2851 30.9775 25.27 31.6427 23.8569C33.1367 20.6834 31.9671 16.9737 28.9259 15.2451C26.946 14.1189 24.9645 12.9927 23.0205 11.806C22.4605 11.4643 22.0619 11.4619 21.5361 11.8198C20.8474 12.2882 20.1032 12.6747 19.315 13.1357C19.4894 13.2477 19.5954 13.3212 19.707 13.3858C22.2396 14.8594 24.7721 16.3337 27.3071 17.8024C27.7864 18.0803 28.0138 18.4685 28.0105 19.0349C27.9983 21.5799 28.0057 24.125 28.0057 26.67C28.0057 26.8163 28.0057 26.9626 28.0057 27.1956L28.0065 27.1947ZM13.9222 18.2135C13.9222 18.2135 13.9206 18.2135 13.9198 18.2135C13.9198 18.7987 13.9076 19.3855 13.9288 19.9699C13.9336 20.108 14.0119 20.3033 14.1187 20.3679C15.118 20.9711 16.1287 21.5562 17.146 22.1292C17.2528 22.1888 17.45 22.1913 17.556 22.1316C18.5594 21.5628 19.5563 20.9825 20.5425 20.3843C20.6656 20.3099 20.7822 20.1105 20.7846 19.9674C20.8026 18.824 20.7993 17.6798 20.7797 16.5364C20.7773 16.4049 20.6738 16.2201 20.5621 16.1523C19.5734 15.5581 18.5765 14.9787 17.5707 14.4131C17.4541 14.3477 17.2405 14.3338 17.1289 14.3976C16.1475 14.9509 15.1816 15.532 14.2043 16.0926C13.985 16.2185 13.9108 16.3738 13.9182 16.6206C13.9345 17.151 13.9231 17.6831 13.9231 18.2135H13.9222Z" fill="white"/>
<path d="M57.3392 19.5849C57.2153 20.9089 57.1664 22.2444 56.952 23.5537C56.4523 26.612 54.0641 29.0769 51.0376 29.7741C49.1416 30.2105 47.2351 30.2514 45.3514 29.7683C42.1122 28.938 40.1306 26.8367 39.419 23.5733C39.2324 22.7167 39.1696 21.8202 39.1541 20.9408C39.1289 19.526 39.1069 18.1031 39.2348 16.6974C39.45 14.3313 40.3686 12.2807 42.3037 10.7941C43.5867 9.80844 45.058 9.28374 46.6539 9.11292C48.6094 8.90451 50.533 9.01485 52.3695 9.80517C54.4561 10.7026 55.8671 12.2399 56.6333 14.373C57.0604 15.563 57.2381 16.7996 57.2324 18.0631C57.2299 18.5674 57.2324 19.0708 57.2324 19.5751C57.2683 19.5783 57.3041 19.5816 57.3408 19.5857L57.3392 19.5849ZM53.4201 19.5653C53.3981 19.5645 53.3769 19.5628 53.3549 19.562C53.3549 18.8812 53.3606 18.2004 53.3533 17.5196C53.3403 16.2699 53.0811 15.0808 52.3638 14.0396C51.4451 12.7057 50.1075 12.1287 48.536 12.0519C47.0631 11.9808 45.6994 12.2922 44.5933 13.3498C43.5745 14.324 43.1123 15.5744 43.0577 16.9385C42.9868 18.69 42.999 20.4471 43.0528 22.2002C43.0862 23.288 43.4318 24.3219 44.0872 25.2079C45.1427 26.6365 46.6409 27.104 48.342 27.0852C50.9406 27.0566 52.8096 25.5062 53.2033 22.9391C53.3729 21.8292 53.3541 20.6907 53.4201 19.5653Z" fill="white"/>
<path d="M127.493 29.6916C126.232 29.6916 124.987 29.7015 123.742 29.6753C123.621 29.6728 123.447 29.4636 123.397 29.3165C122.991 28.1192 122.597 26.9169 122.229 25.7073C122.138 25.4074 121.991 25.3387 121.707 25.3396C119.344 25.3486 116.981 25.3518 114.618 25.3371C114.301 25.3355 114.192 25.4761 114.111 25.7384C113.734 26.9455 113.354 28.1511 112.956 29.35C112.911 29.4857 112.746 29.6769 112.635 29.6794C111.401 29.7031 110.166 29.6941 108.867 29.6941C108.901 29.5355 108.913 29.408 108.955 29.2904C110.09 26.1144 111.232 22.9408 112.363 19.764C113.521 16.512 114.677 13.2584 115.814 9.99818C115.957 9.58953 116.139 9.42934 116.59 9.44487C117.703 9.48328 118.817 9.46857 119.931 9.45141C120.239 9.44651 120.378 9.54621 120.483 9.84289C121.774 13.4815 123.081 17.1135 124.38 20.7488C125.428 23.6813 126.469 26.6154 127.511 29.5494C127.519 29.5715 127.506 29.6017 127.496 29.6908L127.493 29.6916ZM121.188 22.4643C120.195 19.3129 119.219 16.2153 118.243 13.117C118.199 13.1129 118.155 13.108 118.11 13.1039C117.121 16.2137 116.132 19.3243 115.133 22.4643H121.187H121.188Z" fill="white"/>
<path d="M63.7271 16.6202C65.3997 14.4233 67.6159 14.1087 70.0319 14.5852C72.3843 15.0494 73.8442 16.5892 74.4042 18.8702C74.938 21.045 74.9169 23.2926 74.4522 25.4723C73.858 28.2601 71.5668 29.9952 68.7131 30.0524C67.3078 30.0802 65.9825 29.8407 64.847 28.9319C64.5177 28.6687 64.177 28.4203 63.842 28.1645C63.8616 28.1122 63.8811 28.0607 63.9007 28.0084C63.9007 28.1833 63.9007 28.3582 63.9007 28.5322C63.9007 30.4798 63.8917 32.4266 63.9097 34.3742C63.9129 34.7388 63.8029 34.8434 63.4483 34.8352C62.4849 34.8148 61.5198 34.8205 60.5555 34.8319C60.2621 34.8352 60.1553 34.7461 60.1553 34.4339C60.1634 28.0337 60.1642 21.6335 60.1553 15.2333C60.1553 14.8655 60.2474 14.7339 60.6321 14.7462C61.5141 14.7739 62.3976 14.7723 63.2796 14.7462C63.6488 14.7355 63.7515 14.8671 63.7328 15.2161C63.7075 15.6828 63.7263 16.1511 63.7263 16.6194L63.7271 16.6202ZM71.0345 22.2072C71.0027 22.2031 70.9709 22.1999 70.9391 22.1958C70.9391 21.7463 70.9489 21.2976 70.9375 20.8481C70.9147 19.9548 70.6946 19.1113 70.1077 18.4248C69.1679 17.3264 67.9404 16.9994 66.5734 17.3378C65.1258 17.6966 64.2675 18.7092 64.0181 20.1501C63.8689 21.0123 63.9015 21.9114 63.908 22.7932C63.9121 23.4005 63.9447 24.0232 64.0825 24.6117C64.4313 26.0992 65.7282 27.1527 67.1652 27.1984C68.9389 27.254 70.2398 26.4547 70.6938 24.8569C70.9342 24.0093 70.9294 23.0923 71.0345 22.2064V22.2072Z" fill="white"/>
<path d="M87.6965 25.399C88.5328 25.8837 89.3292 26.3454 90.1663 26.8301C89.6519 27.7258 89.0113 28.4377 88.1782 28.9779C87.1463 29.6481 85.997 29.9366 84.7882 30.0151C83.4107 30.1042 82.0429 30.0486 80.733 29.5549C78.3717 28.6649 77.0903 26.8947 76.8401 24.4313C76.6787 22.8401 76.642 21.2235 76.9289 19.6297C77.3805 17.1247 78.798 15.4207 81.2523 14.7284C83.0398 14.2242 84.8697 14.1923 86.6548 14.8257C88.7684 15.5752 90.0668 17.0961 90.4377 19.284C90.6496 20.5329 90.5746 21.8307 90.6309 23.1065C90.6423 23.377 90.4605 23.3648 90.2747 23.3648C89.5272 23.3631 88.7806 23.3648 88.0331 23.3648C85.7239 23.3656 83.4147 23.3746 81.1055 23.3607C80.7453 23.3582 80.6401 23.4612 80.6458 23.8216C80.6613 24.8089 80.8113 25.7308 81.4813 26.522C82.5279 27.7577 84.7213 27.7978 85.878 27.1112C86.4966 26.7443 87.0094 26.2752 87.4348 25.7006C87.5066 25.6042 87.593 25.5183 87.6965 25.3998V25.399ZM87.0134 20.9333C86.9474 20.3236 86.9401 19.7474 86.8137 19.199C86.5113 17.8799 85.6351 17.1297 84.3285 16.8657C83.215 16.6409 81.9019 17.1705 81.2832 18.0949C80.7958 18.8223 80.676 19.6485 80.6263 20.5002C80.6059 20.859 80.7216 20.9701 81.0827 20.9677C82.9167 20.9538 84.7499 20.9652 86.5839 20.9652C86.6898 20.9652 86.7958 20.9497 87.0134 20.9333Z" fill="white"/>
<path d="M93.1024 29.6934C93.1024 29.4098 93.1024 29.1932 93.1024 28.9767C93.1024 24.4431 93.1016 19.9096 93.1016 15.3753C93.1016 14.9606 93.3045 14.7533 93.7105 14.7533C94.5655 14.7533 95.4214 14.764 96.2764 14.7452C96.5601 14.7386 96.6685 14.8187 96.6595 15.1088C96.6432 15.6107 96.6554 16.1125 96.6554 16.6715C96.7565 16.6094 96.8307 16.5906 96.8535 16.5456C97.5398 15.22 98.7176 14.6593 100.114 14.4771C101.308 14.321 102.501 14.3308 103.633 14.8171C105.245 15.5093 106.106 16.8015 106.403 18.4875C106.507 19.0727 106.535 19.6767 106.538 20.2725C106.551 23.2679 106.538 26.2633 106.55 29.2578C106.552 29.6003 106.442 29.7106 106.111 29.7057C105.133 29.6918 104.155 29.6959 103.178 29.7065C102.924 29.709 102.823 29.6542 102.824 29.3665C102.836 26.5616 102.834 23.7574 102.83 20.9525C102.83 20.6403 102.809 20.3264 102.769 20.0167C102.525 18.1876 101.079 17.1586 99.2662 17.5141C97.7819 17.8051 96.9472 18.7679 96.8568 20.3714C96.807 21.2402 96.8299 22.113 96.8291 22.9835C96.8274 25.0667 96.8242 27.1492 96.838 29.2325C96.8405 29.5839 96.7369 29.7073 96.375 29.7C95.3056 29.6787 94.2362 29.6926 93.104 29.6926L93.1024 29.6934Z" fill="white"/>
<path d="M134.057 19.5288C134.057 17.2813 134.05 15.0337 134.065 12.787C134.068 12.3914 133.981 12.2394 133.549 12.2517C132.395 12.2835 131.24 12.2566 130.086 12.2696C129.803 12.2729 129.702 12.1838 129.708 11.8961C129.723 11.2014 129.726 10.5067 129.706 9.81204C129.698 9.50719 129.827 9.45325 130.094 9.45407C131.792 9.46388 133.49 9.45979 135.189 9.45979C137.335 9.45979 139.481 9.46715 141.627 9.45243C141.985 9.44998 142.105 9.55541 142.09 9.91666C142.064 10.5419 142.065 11.1704 142.087 11.7956C142.099 12.1405 142.014 12.2745 141.635 12.2656C140.481 12.2394 139.326 12.268 138.172 12.25C137.844 12.2451 137.746 12.3595 137.746 12.6726C137.75 17.2625 137.75 21.8532 137.742 26.4431C137.742 26.7357 137.852 26.8117 138.129 26.8093C139.297 26.797 140.466 26.8174 141.634 26.7962C142 26.7897 142.101 26.9139 142.088 27.267C142.062 27.9469 142.067 28.6286 142.083 29.3094C142.088 29.5848 141.983 29.66 141.726 29.6592C137.827 29.6551 133.928 29.6559 130.03 29.6624C129.778 29.6624 129.7 29.5701 129.705 29.3249C129.718 28.6171 129.722 27.9085 129.709 27.1999C129.703 26.9024 129.8 26.7986 130.108 26.8035C131.276 26.8207 132.445 26.7962 133.612 26.8191C133.98 26.8264 134.065 26.7038 134.063 26.3516C134.048 24.0771 134.056 21.8025 134.056 19.528L134.057 19.5288Z" fill="white"/>
</svg>
