<svg width="143" height="36" viewBox="0 0 143 36" fill="none" xmlns="http://www.w3.org/2000/svg">
<path d="M19.7886 35.8425C17.265 35.7935 15.1506 34.9582 13.4324 33.1929C13.2066 32.9607 12.9979 32.9011 12.6825 32.9542C8.94276 33.5917 5.18349 31.6612 3.45302 28.2646C2.3893 26.1764 2.17167 24.0187 2.80501 21.772C2.87266 21.5317 2.82131 21.3789 2.67133 21.186C0.406965 18.2724 -0.0356376 15.0906 1.48291 11.7291C2.58249 9.29523 4.50125 7.71459 7.08106 6.98883C7.46742 6.88013 7.67609 6.70687 7.82362 6.3113C9.47584 1.87422 14.7854 -0.459151 19.1772 1.29476C20.3665 1.7696 21.4245 2.44224 22.3105 3.36986C22.5135 3.58318 22.705 3.63467 22.9887 3.58645C26.8368 2.93261 30.6637 4.93906 32.3575 8.45587C33.3283 10.4713 33.5109 12.5775 32.9012 14.7351C32.8221 15.0138 32.8743 15.1846 33.0471 15.3898C35.2707 18.0264 35.7011 21.8709 34.1402 24.9635C32.9322 27.3574 31.0566 28.9233 28.4613 29.6025C28.2005 29.6711 28.057 29.7847 27.9519 30.0479C26.6689 33.2533 24.3206 35.1527 20.9273 35.742C20.5279 35.8115 20.1171 35.8155 19.7886 35.8433V35.8425ZM20.1277 4.577C20.1383 4.51898 20.1488 4.46177 20.1586 4.40374C19.5938 4.09725 19.0493 3.74255 18.4608 3.49164C14.3045 1.72138 9.52964 4.85979 9.48644 9.39085C9.46199 11.9506 9.48481 14.5104 9.47421 17.0701C9.4734 17.3431 9.57529 17.4894 9.80107 17.6144C10.4898 17.9961 11.1688 18.395 11.8519 18.7864C12.032 18.8902 12.213 18.9924 12.4754 19.1428C12.4754 18.8641 12.4754 18.6916 12.4754 18.5184C12.4754 15.9316 12.4754 13.3441 12.4771 10.7574C12.4771 10.3765 12.4771 9.99483 12.4909 9.61397C12.5056 9.20124 12.702 8.88985 13.0591 8.68308C14.6322 7.77098 16.207 6.86052 17.7801 5.94678C18.5635 5.49155 19.3452 5.03305 20.1277 4.57619V4.577ZM23.265 17.433C23.252 17.5997 23.2406 17.679 23.2406 17.7591C23.2406 20.7283 23.2357 23.6976 23.2454 26.6668C23.2471 27.2013 23.0873 27.632 22.6154 27.905C20.6086 29.0663 18.5977 30.222 16.5893 31.3817C16.2445 31.5812 15.907 31.7936 15.5696 31.998C15.6185 32.0846 15.6266 32.1124 15.6454 32.1304C15.6951 32.177 15.7465 32.2219 15.8011 32.2611C17.5715 33.5263 19.5139 33.9014 21.594 33.2672C24.3572 32.4254 26.1725 29.9793 26.2141 27.0779C26.2499 24.5729 26.232 22.0662 26.2491 19.5604C26.2507 19.2662 26.1611 19.0774 25.8978 18.9401C25.5375 18.7521 25.1944 18.529 24.8414 18.3263C24.3393 18.0386 23.8339 17.755 23.265 17.433ZM7.20496 9.37859C7.02156 9.43172 6.92782 9.44725 6.84549 9.48484C5.32287 10.191 4.18906 11.2829 3.49459 12.8308C2.10157 15.9333 3.30141 19.6144 6.23416 21.2784C8.28742 22.443 10.3252 23.6354 12.3564 24.8369C12.7363 25.0616 13.0476 25.1605 13.4104 24.8369C13.5481 24.7134 13.7397 24.6505 13.9043 24.5549C14.5425 24.1822 15.18 23.8079 15.8785 23.3992C15.6323 23.2399 15.4579 23.1173 15.2745 23.0102C12.8357 21.593 10.3994 20.1718 7.95241 18.7685C7.43808 18.4734 7.19517 18.0795 7.19762 17.4837C7.20985 15.0065 7.20414 12.5293 7.20496 10.0512C7.20496 9.85017 7.20496 9.64912 7.20496 9.37859ZM30.8431 13.4324C30.8846 13.2125 30.9311 13.0597 30.9417 12.9044C31.0501 11.3009 30.6694 9.83383 29.7459 8.50736C27.9168 5.88222 24.248 4.94805 21.4506 6.48293C19.1675 7.73584 16.9333 9.07783 14.6876 10.3986C14.5515 10.4787 14.4398 10.7157 14.435 10.8832C14.4081 11.8084 14.417 12.7336 14.4178 13.6596C14.4178 13.747 14.4472 13.8337 14.4692 13.9538C14.5752 13.9113 14.651 13.8909 14.7162 13.8525C17.2617 12.3764 19.8114 10.9061 22.3488 9.41619C22.8852 9.10153 23.3685 9.07456 23.9089 9.39494C25.6239 10.4125 27.3511 11.4104 29.0743 12.414C29.644 12.7458 30.2162 13.0719 30.8439 13.4324H30.8431ZM4.92429 23.1516C4.87294 23.172 4.82158 23.1925 4.77023 23.2129C4.77023 23.749 4.73274 24.2876 4.77594 24.8205C5.15741 29.5355 10.436 32.3004 14.5173 29.9327C16.6643 28.6871 18.8137 27.4448 20.9648 26.205C21.1832 26.0791 21.3014 25.9361 21.2957 25.6582C21.277 24.7739 21.2892 23.8888 21.2859 23.0037C21.2859 22.8786 21.2623 22.7544 21.246 22.5967C21.0862 22.6661 20.9827 22.6996 20.8898 22.7536C18.3556 24.2239 15.8198 25.6901 13.2938 27.1735C12.8219 27.4506 12.3752 27.4775 11.913 27.2103C10.1646 26.196 8.42109 25.1744 6.67351 24.1577C6.09233 23.8193 5.50709 23.4875 4.92347 23.1524L4.92429 23.1516ZM28.507 27.1947C28.7547 27.0934 28.9072 27.0427 29.0498 26.9724C30.4322 26.2851 31.478 25.27 32.1431 23.8569C33.6372 20.6834 32.4676 16.9737 29.4264 15.2451C27.4465 14.1189 25.465 12.9927 23.5209 11.806C22.961 11.4643 22.5624 11.4619 22.0366 11.8198C21.3479 12.2882 20.6037 12.6747 19.8155 13.1357C19.9899 13.2477 20.0959 13.3212 20.2075 13.3858C22.7401 14.8594 25.2726 16.3337 27.8076 17.8024C28.2869 18.0803 28.5143 18.4685 28.511 19.0349C28.4988 21.5799 28.5061 24.125 28.5061 26.67C28.5061 26.8163 28.5061 26.9626 28.5061 27.1956L28.507 27.1947ZM14.4227 18.2135C14.4227 18.2135 14.4211 18.2135 14.4203 18.2135C14.4203 18.7987 14.4081 19.3855 14.4292 19.9699C14.4341 20.108 14.5124 20.3033 14.6192 20.3679C15.6185 20.9711 16.6292 21.5562 17.6465 22.1292C17.7533 22.1888 17.9505 22.1913 18.0565 22.1316C19.0599 21.5628 20.0567 20.9825 21.043 20.3843C21.1661 20.3099 21.2827 20.1105 21.2851 19.9674C21.303 18.824 21.2998 17.6798 21.2802 16.5364C21.2778 16.4049 21.1743 16.2201 21.0626 16.1523C20.0739 15.5581 19.077 14.9787 18.0711 14.4131C17.9546 14.3477 17.741 14.3338 17.6294 14.3976C16.648 14.9509 15.6821 15.532 14.7048 16.0926C14.4855 16.2185 14.4113 16.3738 14.4186 16.6206C14.435 17.151 14.4235 17.6831 14.4235 18.2135H14.4227Z" fill="black"/>
<path d="M57.8394 19.5846C57.7155 20.9087 57.6666 22.2441 57.4522 23.5534C56.9526 26.6117 54.5643 29.0767 51.5378 29.7738C49.6419 30.2103 47.7354 30.2511 45.8516 29.7681C42.6124 28.9377 40.6309 26.8365 39.9193 23.573C39.7326 22.7165 39.6699 21.8199 39.6544 20.9405C39.6291 19.5258 39.6071 18.1029 39.7351 16.6971C39.9503 14.3311 40.8689 12.2805 42.804 10.7938C44.0869 9.80819 45.5582 9.28349 47.1542 9.11268C49.1096 8.90427 51.0333 9.0146 52.8697 9.80492C54.9564 10.7023 56.3673 12.2396 57.1335 14.3728C57.5606 15.5627 57.7383 16.7993 57.7326 18.0628C57.7302 18.5671 57.7326 19.0706 57.7326 19.5748C57.7685 19.5781 57.8044 19.5814 57.841 19.5855L57.8394 19.5846ZM53.9204 19.565C53.8984 19.5642 53.8772 19.5626 53.8552 19.5618C53.8552 18.881 53.8609 18.2001 53.8535 17.5193C53.8405 16.2697 53.5813 15.0805 52.864 14.0393C51.9454 12.7055 50.6078 12.1285 49.0363 12.0517C47.5634 11.9806 46.1997 12.2919 45.0936 13.3495C44.0747 14.3237 43.6125 15.5742 43.5579 16.9382C43.487 18.6897 43.4992 20.4469 43.553 22.2C43.5865 23.2878 43.9321 24.3217 44.5874 25.2076C45.643 26.6362 47.1411 27.1037 48.8423 27.0849C51.4408 27.0563 53.3099 25.5059 53.7036 22.9388C53.8731 21.8289 53.8544 20.6904 53.9204 19.565Z" fill="black"/>
<path d="M127.994 29.6916C126.733 29.6916 125.487 29.7015 124.243 29.6753C124.122 29.6728 123.948 29.4636 123.898 29.3165C123.492 28.1192 123.098 26.9169 122.73 25.7073C122.639 25.4074 122.492 25.3387 122.207 25.3396C119.844 25.3486 117.481 25.3518 115.119 25.3371C114.801 25.3355 114.693 25.4761 114.611 25.7384C114.235 26.9455 113.854 28.1511 113.456 29.35C113.412 29.4857 113.247 29.6769 113.135 29.6794C111.901 29.7031 110.666 29.6941 109.368 29.6941C109.401 29.5355 109.414 29.408 109.456 29.2904C110.591 26.1144 111.733 22.9408 112.864 19.764C114.022 16.512 115.178 13.2584 116.315 9.99818C116.458 9.58953 116.639 9.42934 117.091 9.44487C118.204 9.48328 119.318 9.46857 120.431 9.45141C120.739 9.44651 120.879 9.54621 120.984 9.84289C122.274 13.4815 123.582 17.1135 124.881 20.7488C125.928 23.6813 126.969 26.6154 128.012 29.5494C128.02 29.5715 128.007 29.6017 127.996 29.6908L127.994 29.6916ZM121.688 22.4643C120.695 19.3129 119.72 16.2153 118.744 13.117C118.7 13.1129 118.656 13.108 118.611 13.1039C117.622 16.2137 116.633 19.3243 115.634 22.4643H121.687H121.688Z" fill="black"/>
<path d="M64.2276 16.6202C65.9002 14.4233 68.1164 14.1087 70.5324 14.5852C72.8848 15.0494 74.3447 16.5892 74.9046 18.8702C75.4385 21.045 75.4173 23.2926 74.9527 25.4723C74.3585 28.2601 72.0673 29.9952 69.2136 30.0524C67.8083 30.0802 66.483 29.8407 65.3475 28.9319C65.0182 28.6687 64.6775 28.4203 64.3425 28.1645C64.3621 28.1122 64.3816 28.0607 64.4012 28.0084C64.4012 28.1833 64.4012 28.3582 64.4012 28.5322C64.4012 30.4798 64.3922 32.4266 64.4101 34.3742C64.4134 34.7388 64.3034 34.8434 63.9488 34.8352C62.9853 34.8148 62.0203 34.8205 61.056 34.8319C60.7625 34.8352 60.6558 34.7461 60.6558 34.4339C60.6639 28.0337 60.6647 21.6335 60.6558 15.2333C60.6558 14.8655 60.7479 14.7339 61.1326 14.7462C62.0145 14.7739 62.8981 14.7723 63.7801 14.7462C64.1493 14.7355 64.252 14.8671 64.2333 15.2161C64.208 15.6828 64.2267 16.1511 64.2267 16.6194L64.2276 16.6202ZM71.535 22.2072C71.5032 22.2031 71.4714 22.1999 71.4396 22.1958C71.4396 21.7463 71.4494 21.2976 71.438 20.8481C71.4152 19.9548 71.1951 19.1113 70.6082 18.4248C69.6684 17.3264 68.4408 16.9994 67.0739 17.3378C65.6263 17.6966 64.768 18.7092 64.5186 20.1501C64.3694 21.0123 64.402 21.9114 64.4085 22.7932C64.4126 23.4005 64.4452 24.0232 64.5829 24.6117C64.9318 26.0992 66.2286 27.1527 67.6657 27.1984C69.4394 27.254 70.7403 26.4547 71.1943 24.8569C71.4347 24.0093 71.4298 23.0923 71.535 22.2064V22.2072Z" fill="black"/>
<path d="M88.197 25.399C89.0333 25.8837 89.8296 26.3454 90.6668 26.8301C90.1524 27.7258 89.5118 28.4377 88.6787 28.9779C87.6468 29.6481 86.4975 29.9366 85.2887 30.0151C83.9111 30.1042 82.5434 30.0486 81.2335 29.5549C78.8722 28.6649 77.5908 26.8947 77.3406 24.4313C77.1792 22.8401 77.1425 21.2235 77.4294 19.6297C77.881 17.1247 79.2985 15.4207 81.7527 14.7284C83.5403 14.2242 85.3702 14.1923 87.1553 14.8257C89.2688 15.5752 90.5673 17.0961 90.9382 19.284C91.1501 20.5329 91.0751 21.8307 91.1314 23.1065C91.1428 23.377 90.961 23.3648 90.7752 23.3648C90.0277 23.3631 89.2811 23.3648 88.5336 23.3648C86.2244 23.3656 83.9152 23.3746 81.606 23.3607C81.2458 23.3582 81.1406 23.4612 81.1463 23.8216C81.1618 24.8089 81.3118 25.7308 81.9818 26.522C83.0284 27.7577 85.2218 27.7978 86.3785 27.1112C86.9971 26.7443 87.5098 26.2752 87.9353 25.7006C88.0071 25.6042 88.0935 25.5183 88.197 25.3998V25.399ZM87.5139 20.9333C87.4479 20.3236 87.4406 19.7474 87.3142 19.199C87.0118 17.8799 86.1356 17.1297 84.829 16.8657C83.7155 16.6409 82.4024 17.1705 81.7837 18.0949C81.2963 18.8223 81.1765 19.6485 81.1267 20.5002C81.1064 20.859 81.2221 20.9701 81.5832 20.9677C83.4172 20.9538 85.2504 20.9652 87.0844 20.9652C87.1903 20.9652 87.2963 20.9497 87.5139 20.9333Z" fill="black"/>
<path d="M93.6031 29.6932C93.6031 29.4096 93.6031 29.193 93.6031 28.9764C93.6031 24.4429 93.6023 19.9094 93.6023 15.375C93.6023 14.9604 93.8053 14.7531 94.2112 14.7531C95.0662 14.7531 95.9221 14.7637 96.7771 14.7449C97.0608 14.7384 97.1692 14.8185 97.1602 15.1086C97.1439 15.6104 97.1562 16.1122 97.1562 16.6713C97.2572 16.6092 97.3314 16.5904 97.3542 16.5454C98.0406 15.2198 99.2184 14.6591 100.615 14.4768C101.809 14.3207 103.002 14.3305 104.133 14.8168C105.746 15.5091 106.607 16.8012 106.904 18.4873C107.008 19.0725 107.036 19.6764 107.039 20.2723C107.052 23.2676 107.039 26.263 107.051 29.2576C107.052 29.6 106.943 29.7103 106.611 29.7054C105.634 29.6915 104.656 29.6956 103.679 29.7063C103.425 29.7087 103.323 29.654 103.325 29.3663C103.337 26.5613 103.335 23.7572 103.331 20.9522C103.331 20.64 103.31 20.3262 103.269 20.0164C103.026 18.1873 101.58 17.1584 99.7669 17.5139C98.2826 17.8049 97.448 18.7676 97.3575 20.3711C97.3078 21.2399 97.3306 22.1128 97.3298 22.9832C97.3282 25.0665 97.3249 27.149 97.3388 29.2322C97.3412 29.5837 97.2377 29.7071 96.8758 29.6997C95.8063 29.6785 94.7369 29.6924 93.6047 29.6924L93.6031 29.6932Z" fill="black"/>
<path d="M134.558 19.5291C134.558 17.2815 134.55 15.034 134.566 12.7872C134.568 12.3917 134.481 12.2396 134.05 12.2519C132.896 12.2838 131.741 12.2568 130.587 12.2699C130.304 12.2732 130.203 12.1841 130.208 11.8964C130.224 11.2017 130.226 10.507 130.207 9.81229C130.199 9.50744 130.327 9.4535 130.595 9.45431C132.293 9.46412 133.99 9.46003 135.689 9.46003C137.835 9.46003 139.981 9.46739 142.128 9.45268C142.485 9.45023 142.605 9.55566 142.591 9.9169C142.565 10.5421 142.565 11.1706 142.587 11.7959C142.6 12.1408 142.515 12.2748 142.136 12.2658C140.982 12.2396 139.827 12.2682 138.672 12.2503C138.345 12.2454 138.246 12.3598 138.246 12.6728C138.251 17.2627 138.25 21.8535 138.243 26.4434C138.243 26.736 138.353 26.812 138.63 26.8095C139.798 26.7973 140.967 26.8177 142.134 26.7964C142.501 26.7899 142.602 26.9141 142.588 27.2672C142.563 27.9472 142.568 28.6288 142.583 29.3096C142.589 29.585 142.484 29.6602 142.226 29.6594C138.328 29.6553 134.429 29.6561 130.53 29.6627C130.278 29.6627 130.201 29.5703 130.206 29.3251C130.219 28.6174 130.222 27.9088 130.209 27.2002C130.203 26.9027 130.3 26.7989 130.609 26.8038C131.777 26.821 132.945 26.7964 134.113 26.8193C134.48 26.8267 134.566 26.7041 134.563 26.3518C134.549 24.0773 134.556 21.8028 134.556 19.5283L134.558 19.5291Z" fill="black"/>
</svg>
