<svg width="25" height="25" viewBox="0 0 25 25" fill="none" xmlns="http://www.w3.org/2000/svg">
<path fill-rule="evenodd" clip-rule="evenodd" d="M4.59229 4.12988C3.76386 4.12988 3.09229 4.80145 3.09229 5.62988V20.6299C3.09229 21.4583 3.76386 22.1299 4.59229 22.1299H19.5923C20.4207 22.1299 21.0923 21.4583 21.0923 20.6299V5.62988C21.0923 4.80145 20.4207 4.12988 19.5923 4.12988H4.59229ZM8.61304 8.1326C8.61867 9.08885 7.90289 9.67807 7.05351 9.67385C6.25336 9.66963 5.55586 9.0326 5.56008 8.13401C5.5643 7.28885 6.23226 6.60963 7.09993 6.62932C7.98024 6.64901 8.61867 7.29448 8.61304 8.1326ZM12.372 10.8916H9.852H9.85058V19.4515H12.514V19.2518C12.514 18.8719 12.5137 18.4919 12.5134 18.1118C12.5126 17.098 12.5117 16.0831 12.5169 15.0696C12.5183 14.8235 12.5295 14.5676 12.5928 14.3327C12.8304 13.4552 13.6194 12.8885 14.4997 13.0278C15.065 13.1163 15.439 13.444 15.5965 13.977C15.6936 14.3102 15.7372 14.6688 15.7414 15.0162C15.7528 16.0638 15.7512 17.1114 15.7496 18.1591C15.749 18.5289 15.7484 18.8989 15.7484 19.2687V19.4501H18.4203V19.2448C18.4203 18.7928 18.4201 18.3409 18.4198 17.889C18.4193 16.7595 18.4187 15.63 18.4217 14.5001C18.4231 13.9896 18.3683 13.4862 18.2431 12.9926C18.0561 12.2585 17.6694 11.651 17.0408 11.2123C16.595 10.9001 16.1056 10.699 15.5586 10.6765C15.4963 10.6739 15.4335 10.6705 15.3704 10.6671C15.0907 10.652 14.8064 10.6366 14.539 10.6905C13.774 10.8438 13.1019 11.194 12.5942 11.8113C12.5352 11.8821 12.4775 11.954 12.3914 12.0613L12.372 12.0856V10.8916ZM5.77393 19.4543H8.42471V10.8972H5.77393V19.4543Z" fill="#13678B"/>
</svg>
