<svg width="25" height="25" viewBox="0 0 25 25" fill="none" xmlns="http://www.w3.org/2000/svg">
<path fill-rule="evenodd" clip-rule="evenodd" d="M4.5918 4.12988C3.76337 4.12988 3.0918 4.80145 3.0918 5.62988V20.6299C3.0918 21.4583 3.76337 22.1299 4.5918 22.1299H19.5918C20.4202 22.1299 21.0918 21.4583 21.0918 20.6299V5.62988C21.0918 4.80145 20.4202 4.12988 19.5918 4.12988H4.5918ZM8.61256 8.1326C8.61819 9.08885 7.90241 9.67807 7.05303 9.67385C6.25287 9.66963 5.55537 9.0326 5.55959 8.13401C5.56381 7.28885 6.23178 6.60963 7.09944 6.62932C7.97975 6.64901 8.61819 7.29448 8.61256 8.1326ZM12.3715 10.8916H9.85151H9.8501V19.4515H12.5135V19.2518C12.5135 18.8719 12.5132 18.4919 12.5129 18.1118C12.5121 17.098 12.5112 16.0831 12.5164 15.0696C12.5178 14.8235 12.529 14.5676 12.5923 14.3327C12.8299 13.4552 13.6189 12.8885 14.4992 13.0278C15.0645 13.1163 15.4385 13.444 15.596 13.977C15.6931 14.3102 15.7367 14.6688 15.7409 15.0162C15.7523 16.0638 15.7507 17.1114 15.7491 18.1591C15.7485 18.5289 15.7479 18.8989 15.7479 19.2687V19.4501H18.4198V19.2448C18.4198 18.7928 18.4196 18.3409 18.4193 17.889C18.4188 16.7595 18.4182 15.63 18.4212 14.5001C18.4226 13.9896 18.3678 13.4862 18.2426 12.9926C18.0556 12.2585 17.6689 11.651 17.0403 11.2123C16.5945 10.9001 16.1051 10.699 15.5581 10.6765C15.4958 10.6739 15.433 10.6705 15.3699 10.6671C15.0902 10.652 14.8059 10.6366 14.5385 10.6905C13.7735 10.8438 13.1014 11.194 12.5937 11.8113C12.5347 11.8821 12.477 11.954 12.3909 12.0613L12.3715 12.0856V10.8916ZM5.77344 19.4543H8.42422V10.8972H5.77344V19.4543Z" fill="#13678B"/>
</svg>
