<svg width="32" height="54" viewBox="0 0 32 54" fill="none" xmlns="http://www.w3.org/2000/svg">
<path d="M16.9078 36.3426C16.5948 36.788 16.3172 37.2533 16.0726 37.7358C16.8368 39.6127 17.2614 41.6779 17.2614 43.8478C17.2614 43.9538 17.2576 44.0585 17.2563 44.1646C17.6276 43.8451 18.0078 43.5297 18.3931 43.2221C19.4475 42.3831 20.5488 41.605 21.6881 40.8905C21.3358 38.3442 20.5323 35.9503 19.3689 33.7976C18.4324 34.4962 17.6023 35.3511 16.9078 36.3426Z" fill="white"/>
<path d="M12.186 26.5768C10.7434 25.5995 9.17826 24.8255 7.52188 24.2955C7.11935 25.9458 6.80182 27.6228 6.57056 29.3222C7.35312 29.5928 8.10818 29.9363 8.82824 30.3429L12.186 26.5768Z" fill="white"/>
<path d="M22.6715 23.0006C21.744 23.0006 20.9906 23.7442 20.9906 24.6613V27.1005C20.0526 27.3933 19.1446 27.7677 18.2747 28.2185L16.527 26.4904C15.8706 25.8414 14.8068 25.8414 14.1504 26.4904L9.39856 31.1888C8.74218 31.8378 8.74218 32.8896 9.39856 33.5386L11.1463 35.2667C10.6904 36.1281 10.3104 37.0258 10.0143 37.952H7.54734C6.95778 37.952 6.44028 38.2525 6.14026 38.7072C6.15074 38.8341 6.1586 38.9598 6.17039 39.0867C6.95778 39.4546 7.75172 39.8601 8.53125 40.294L8.53518 40.2966L8.53911 40.2992C10.0078 41.1309 12.0267 42.4845 13.6696 43.7346C13.667 43.6983 13.6644 43.6633 13.6617 43.6271C13.6486 43.4017 13.6408 43.1685 13.6408 42.9366C13.6408 41.8666 13.7797 40.8109 14.0548 39.7901C14.4478 38.3173 15.1121 36.9442 16.0291 35.7084C17.5109 33.7096 19.5298 32.2199 21.8776 31.3947C22.9283 31.023 24.0236 30.8002 25.1464 30.7224C24.8464 28.0915 24.2909 25.5059 23.493 23.0006H22.6689H22.6715Z" fill="white"/>
<path d="M31.1932 35.2128C31.1932 37.7152 30.9982 40.1734 30.6249 42.5705C30.5629 42.9685 30.2916 43.3028 29.9183 43.4445C26.3042 44.8219 23.0066 46.8535 20.1675 49.3924C19.842 49.6837 19.3473 49.6486 19.0696 49.3091C18.8461 49.0347 18.6213 48.7681 18.3992 48.5105C17.9148 47.9474 17.442 47.4284 17.0145 46.9719L16.773 46.6974C16.5663 46.4724 16.5805 46.12 16.804 45.9119L17.092 45.6439C17.7482 45.0612 18.425 44.5046 19.1199 43.9726C21.1194 42.4417 23.2752 41.1242 25.5589 40.0395C25.9167 39.8691 26.1608 39.5205 26.197 39.1238C26.3146 37.8245 26.3753 36.5173 26.3753 35.2128C26.3753 24.753 22.5093 14.6861 15.6427 6.96285C8.77621 14.6861 4.91023 24.753 4.91023 35.2128C4.91023 36.5173 4.97094 37.8245 5.08848 39.1251C5.12464 39.5218 5.37007 39.8704 5.72915 40.0408C6.50157 40.4075 7.25978 40.8029 8.00249 41.223C9.56025 42.1218 11.6631 43.5811 13.2351 44.8232C13.7931 45.2849 14.3394 45.7636 14.8703 46.2591C14.9117 46.2981 14.9556 46.332 15.0008 46.3632C15.7099 47.1019 17.0752 48.4897 18.3798 50.1025C18.633 50.416 18.6188 50.8712 18.3398 51.1625C17.7043 51.8298 17.0972 52.5243 16.5211 53.2449C16.0677 53.8106 15.2165 53.8093 14.7631 53.2436C11.273 48.8786 6.66045 45.4618 1.36846 43.4445C0.993874 43.3028 0.722621 42.9685 0.660621 42.5705C0.287327 40.1734 0.0922852 37.7152 0.0922852 35.2128C0.0922852 21.2699 6.09728 8.73822 15.6427 0.105865C25.1882 8.73822 31.1932 21.2699 31.1932 35.2128Z" fill="white"/>
</svg>
