<svg width="143" height="36" viewBox="0 0 143 36" fill="none" xmlns="http://www.w3.org/2000/svg">
<path d="M19.2876 35.4534C16.764 35.4043 14.6496 34.569 12.9314 32.8037C12.7056 32.5716 12.4969 32.5119 12.1815 32.565C8.44179 33.2025 4.68251 31.2721 2.95204 27.8754C1.88833 25.7872 1.67069 23.6296 2.30403 21.3829C2.37169 21.1426 2.32033 20.9897 2.17036 20.7969C-0.0940113 17.8832 -0.536614 14.7015 0.98193 11.34C2.08151 8.90607 4.00027 7.32543 6.58008 6.59967C6.96644 6.49097 7.17511 6.31771 7.32264 5.92214C8.97487 1.48506 14.2845 -0.848311 18.6763 0.905598C19.8655 1.38044 20.9235 2.05308 21.8095 2.9807C22.0125 3.19402 22.2041 3.24551 22.4877 3.19729C26.3358 2.54345 30.1628 4.5499 31.8565 8.06671C32.8273 10.0822 33.0099 12.1883 32.4002 14.346C32.3212 14.6247 32.3733 14.7955 32.5461 15.0006C34.7697 17.6372 35.2001 21.4817 33.6392 24.5744C32.4312 26.9682 30.5556 28.5342 27.9603 29.2133C27.6995 29.282 27.556 29.3956 27.4509 29.6588C26.1679 32.8642 23.8196 34.7636 20.4263 35.3528C20.0269 35.4223 19.6161 35.4264 19.2876 35.4542V35.4534ZM19.6267 4.18784C19.6373 4.12982 19.6479 4.07261 19.6577 4.01458C19.0928 3.70809 18.5483 3.35339 17.9598 3.10248C13.8036 1.33222 9.02866 4.47063 8.98546 9.00169C8.96101 11.5615 8.98383 14.1212 8.97324 16.681C8.97242 16.9539 9.07431 17.1002 9.30009 17.2253C9.98886 17.607 10.6678 18.0058 11.3509 18.3973C11.531 18.5011 11.712 18.6032 11.9745 18.7536C11.9745 18.4749 11.9745 18.3025 11.9745 18.1292C11.9745 15.5425 11.9745 12.9549 11.9761 10.3682C11.9761 9.98735 11.9761 9.60567 11.9899 9.22481C12.0046 8.81208 12.2011 8.50069 12.5581 8.29392C14.1312 7.38182 15.706 6.47136 17.2792 5.55762C18.0625 5.10239 18.8442 4.64389 19.6267 4.18703V4.18784ZM22.764 17.0438C22.751 17.2106 22.7396 17.2899 22.7396 17.3699C22.7396 20.3392 22.7347 23.3084 22.7445 26.2776C22.7461 26.8121 22.5863 27.2428 22.1144 27.5158C20.1076 28.6772 18.0967 29.8328 16.0883 30.9926C15.7435 31.192 15.4061 31.4045 15.0686 31.6088C15.1175 31.6954 15.1257 31.7232 15.1444 31.7412C15.1941 31.7878 15.2455 31.8327 15.3001 31.872C17.0705 33.1371 19.0129 33.5123 21.0931 32.8781C23.8563 32.0363 25.6715 29.5901 25.7131 26.6887C25.7489 24.1837 25.731 21.6771 25.7481 19.1713C25.7498 18.877 25.6601 18.6882 25.3968 18.5509C25.0365 18.363 24.6934 18.1398 24.3404 17.9371C23.8383 17.6495 23.333 17.3659 22.764 17.0438ZM6.70398 8.98943C6.52058 9.04256 6.42684 9.05809 6.34452 9.09568C4.8219 9.80182 3.68808 10.8937 2.99361 12.4417C1.6006 15.5441 2.80043 19.2252 5.73319 20.8892C7.78644 22.0538 9.82421 23.2463 11.8555 24.4477C12.2353 24.6725 12.5467 24.7713 12.9094 24.4477C13.0471 24.3243 13.2387 24.2614 13.4033 24.1657C14.0416 23.793 14.679 23.4187 15.3775 23.0101C15.1314 22.8507 14.9569 22.7281 14.7735 22.621C12.3347 21.2039 9.89838 19.7826 7.45143 18.3793C6.9371 18.0843 6.6942 17.6903 6.69664 17.0945C6.70887 14.6173 6.70316 12.1401 6.70398 9.66207C6.70398 9.46101 6.70398 9.25996 6.70398 8.98943ZM30.3421 13.0432C30.3836 12.8234 30.4301 12.6705 30.4407 12.5152C30.5491 10.9117 30.1685 9.44467 29.2449 8.1182C27.4158 5.49306 23.747 4.55889 20.9496 6.09377C18.6665 7.34668 16.4323 8.68867 14.1867 10.0094C14.0505 10.0895 13.9389 10.3265 13.934 10.4941C13.9071 11.4192 13.916 12.3444 13.9169 13.2704C13.9169 13.3579 13.9462 13.4445 13.9682 13.5646C14.0742 13.5221 14.15 13.5017 14.2152 13.4633C16.7608 11.9873 19.3104 10.517 21.8478 9.02703C22.3842 8.71237 22.8675 8.6854 23.408 9.00578C25.1229 10.0233 26.8502 11.0212 28.5733 12.0249C29.1431 12.3567 29.7153 12.6828 30.3429 13.0432H30.3421ZM4.42331 22.7624C4.37196 22.7829 4.32061 22.8033 4.26926 22.8237C4.26926 23.3599 4.23176 23.8985 4.27496 24.4314C4.65643 29.1463 9.93506 31.9112 14.0163 29.5435C16.1633 28.298 18.3127 27.0557 20.4638 25.8158C20.6822 25.69 20.8004 25.547 20.7947 25.2691C20.776 24.3848 20.7882 23.4996 20.7849 22.6145C20.7849 22.4895 20.7613 22.3652 20.745 22.2075C20.5852 22.277 20.4817 22.3105 20.3888 22.3644C17.8546 23.8347 15.3188 25.301 12.7928 26.7843C12.3209 27.0614 11.8742 27.0884 11.412 26.8211C9.66363 25.8069 7.92012 24.7852 6.17253 23.7685C5.59136 23.4302 5.00611 23.0983 4.4225 22.7633L4.42331 22.7624ZM28.006 26.8056C28.2538 26.7042 28.4062 26.6536 28.5488 26.5833C29.9313 25.8959 30.977 24.8809 31.6422 23.4678C33.1363 20.2942 31.9666 16.5845 28.9254 14.856C26.9455 13.7297 24.964 12.6035 23.02 11.4168C22.46 11.0752 22.0614 11.0727 21.5357 11.4307C20.8469 11.899 20.1027 12.2856 19.3145 12.7465C19.4889 12.8585 19.5949 12.9321 19.7066 12.9966C22.2391 14.4702 24.7716 15.9446 27.3066 17.4133C27.7859 17.6911 28.0133 18.0794 28.0101 18.6457C27.9978 21.1908 28.0052 23.7358 28.0052 26.2809C28.0052 26.4272 28.0052 26.5735 28.0052 26.8064L28.006 26.8056ZM13.9217 17.8244C13.9217 17.8244 13.9201 17.8244 13.9193 17.8244C13.9193 18.4095 13.9071 18.9964 13.9283 19.5807C13.9332 19.7188 14.0114 19.9142 14.1182 19.9787C15.1175 20.5819 16.1282 21.1671 17.1455 21.74C17.2523 21.7997 17.4495 21.8021 17.5555 21.7425C18.5589 21.1736 19.5558 20.5933 20.542 19.9951C20.6651 19.9207 20.7817 19.7213 20.7841 19.5783C20.8021 18.4349 20.7988 17.2907 20.7792 16.1473C20.7768 16.0157 20.6733 15.831 20.5616 15.7632C19.5729 15.169 18.576 14.5895 17.5702 14.024C17.4536 13.9586 17.24 13.9447 17.1284 14.0084C16.147 14.5617 15.1811 15.1428 14.2038 15.7035C13.9845 15.8294 13.9103 15.9846 13.9177 16.2315C13.934 16.7619 13.9226 17.2939 13.9226 17.8244H13.9217Z" fill="white"/>
<path d="M57.3387 19.1955C57.2148 20.5195 57.1659 21.8549 56.9515 23.1643C56.4518 26.2226 54.0636 28.6875 51.0371 29.3847C49.1412 29.8211 47.2346 29.862 45.3509 29.3789C42.1117 28.5486 40.1301 26.4473 39.4186 23.1839C39.2319 22.3273 39.1691 21.4308 39.1537 20.5514C39.1284 19.1366 39.1064 17.7137 39.2343 16.308C39.4495 13.9419 40.3682 11.8913 42.3032 10.4047C43.5862 9.41903 45.0575 8.89433 46.6534 8.72352C48.6089 8.51511 50.5325 8.62544 52.369 9.41576C54.4557 10.3132 55.8666 11.8505 56.6328 13.9836C57.0599 15.1736 57.2376 16.4101 57.2319 17.6737C57.2295 18.178 57.2319 18.6814 57.2319 19.1857C57.2678 19.1889 57.3036 19.1922 57.3403 19.1963L57.3387 19.1955ZM53.4196 19.1759C53.3976 19.175 53.3764 19.1734 53.3544 19.1726C53.3544 18.4918 53.3601 17.811 53.3528 17.1302C53.3398 15.8805 53.0806 14.6914 52.3633 13.6502C51.4446 12.3163 50.1071 11.7393 48.5355 11.6625C47.0626 11.5914 45.699 11.9028 44.5929 12.9604C43.574 13.9346 43.1118 15.185 43.0572 16.5491C42.9863 18.3005 42.9985 20.0577 43.0523 21.8108C43.0857 22.8986 43.4313 23.9325 44.0867 24.8185C45.1422 26.2471 46.6404 26.7146 48.3415 26.6958C50.9401 26.6672 52.8091 25.1168 53.2028 22.5496C53.3724 21.4398 53.3536 20.3013 53.4196 19.1759Z" fill="white"/>
<path d="M127.493 29.3025C126.232 29.3025 124.986 29.3123 123.742 29.2861C123.621 29.2837 123.447 29.0745 123.397 28.9273C122.991 27.73 122.596 26.5278 122.229 25.3182C122.137 25.0182 121.991 24.9496 121.706 24.9504C119.343 24.9594 116.98 24.9627 114.617 24.948C114.3 24.9463 114.192 25.0869 114.11 25.3492C113.734 26.5564 113.353 27.7619 112.955 28.9609C112.91 29.0965 112.746 29.2878 112.634 29.2902C111.4 29.3139 110.165 29.3049 108.867 29.3049C108.9 29.1464 108.912 29.0189 108.955 28.9012C110.089 25.7252 111.231 22.5517 112.363 19.3748C113.521 16.1228 114.677 12.8692 115.814 9.60902C115.956 9.20037 116.138 9.04018 116.59 9.05571C117.702 9.09412 118.817 9.07941 119.93 9.06225C120.238 9.05735 120.378 9.15705 120.483 9.45373C121.773 13.0923 123.081 16.7244 124.38 20.3597C125.427 23.2921 126.468 26.2262 127.511 29.1603C127.519 29.1823 127.506 29.2126 127.495 29.3017L127.493 29.3025ZM121.187 22.0752C120.194 18.9237 119.219 15.8262 118.243 12.7278C118.199 12.7237 118.155 12.7188 118.11 12.7147C117.12 15.8245 116.132 18.9351 115.132 22.0752H121.186H121.187Z" fill="white"/>
<path d="M63.7266 16.2311C65.3992 14.0342 67.6155 13.7195 70.0314 14.196C72.3838 14.6602 73.8437 16.2 74.4037 18.4811C74.9376 20.6559 74.9164 22.9034 74.4518 25.0831C73.8575 27.8709 71.5663 29.606 68.7126 29.6632C67.3073 29.691 65.982 29.4516 64.8465 28.5427C64.5172 28.2796 64.1765 28.0311 63.8415 27.7753C63.8611 27.723 63.8806 27.6715 63.9002 27.6192C63.9002 27.7941 63.9002 27.969 63.9002 28.1431C63.9002 30.0907 63.8912 32.0375 63.9092 33.9851C63.9124 34.3496 63.8024 34.4542 63.4478 34.446C62.4844 34.4256 61.5193 34.4313 60.555 34.4428C60.2616 34.446 60.1548 34.357 60.1548 34.0448C60.1629 27.6445 60.1638 21.2443 60.1548 14.8441C60.1548 14.4763 60.2469 14.3447 60.6316 14.357C61.5136 14.3848 62.3971 14.3832 63.2791 14.357C63.6483 14.3464 63.751 14.478 63.7323 14.8269C63.707 15.2936 63.7258 15.7619 63.7258 16.2302L63.7266 16.2311ZM71.034 21.8181C71.0022 21.814 70.9704 21.8107 70.9386 21.8066C70.9386 21.3571 70.9484 20.9084 70.937 20.4589C70.9142 19.5656 70.6941 18.7222 70.1072 18.0356C69.1674 16.9372 67.9399 16.6103 66.5729 16.9486C65.1253 17.3074 64.267 18.32 64.0176 19.7609C63.8684 20.6232 63.901 21.5222 63.9075 22.4041C63.9116 23.0113 63.9442 23.6341 64.082 24.2225C64.4308 25.71 65.7277 26.7635 67.1647 26.8093C68.9384 26.8648 70.2393 26.0655 70.6933 24.4677C70.9338 23.6202 70.9289 22.7032 71.034 21.8172V21.8181Z" fill="white"/>
<path d="M87.696 25.0099C88.5323 25.4945 89.3287 25.9563 90.1658 26.4409C89.6514 27.3367 89.0108 28.0485 88.1777 28.5888C87.1458 29.259 85.9965 29.5475 84.7877 29.6259C83.4102 29.715 82.0424 29.6594 80.7325 29.1658C78.3712 28.2758 77.0898 26.5055 76.8396 24.0422C76.6782 22.4509 76.6415 20.8343 76.9284 19.2406C77.38 16.7356 78.7975 15.0315 81.2518 14.3393C83.0393 13.835 84.8692 13.8031 86.6543 14.4365C88.7679 15.186 90.0663 16.707 90.4372 18.8949C90.6491 20.1437 90.5741 21.4416 90.6304 22.7173C90.6418 22.9879 90.46 22.9756 90.2742 22.9756C89.5267 22.974 88.7801 22.9756 88.0326 22.9756C85.7234 22.9764 83.4142 22.9854 81.1051 22.9715C80.7448 22.9691 80.6396 23.0721 80.6453 23.4325C80.6608 24.4198 80.8108 25.3417 81.4808 26.1328C82.5274 27.3686 84.7209 27.4086 85.8775 26.7221C86.4962 26.3551 87.0089 25.886 87.4344 25.3114C87.5061 25.215 87.5925 25.1292 87.696 25.0107V25.0099ZM87.0129 20.5442C86.9469 19.9345 86.9396 19.3583 86.8132 18.8099C86.5108 17.4908 85.6346 16.7405 84.328 16.4765C83.2146 16.2518 81.9014 16.7814 81.2827 17.7057C80.7953 18.4331 80.6755 19.2594 80.6258 20.111C80.6054 20.4698 80.7211 20.5809 81.0822 20.5785C82.9162 20.5646 84.7494 20.576 86.5834 20.576C86.6893 20.576 86.7953 20.5605 87.0129 20.5442Z" fill="white"/>
<path d="M93.1024 29.304C93.1024 29.0204 93.1024 28.8038 93.1024 28.5873C93.1024 24.0537 93.1016 19.5202 93.1016 14.9859C93.1016 14.5712 93.3045 14.3639 93.7105 14.3639C94.5655 14.3639 95.4214 14.3745 96.2764 14.3557C96.5601 14.3492 96.6685 14.4293 96.6595 14.7194C96.6432 15.2213 96.6554 15.7231 96.6554 16.2821C96.7565 16.22 96.8307 16.2012 96.8535 16.1562C97.5398 14.8306 98.7176 14.2699 100.114 14.0877C101.308 13.9316 102.501 13.9414 103.633 14.4277C105.245 15.1199 106.106 16.4121 106.403 18.0981C106.507 18.6833 106.535 19.2873 106.538 19.8831C106.551 22.8785 106.538 25.8738 106.55 28.8684C106.552 29.2108 106.442 29.3212 106.111 29.3163C105.133 29.3024 104.155 29.3065 103.178 29.3171C102.924 29.3195 102.823 29.2648 102.824 28.9771C102.836 26.1722 102.834 23.368 102.83 20.5631C102.83 20.2509 102.809 19.937 102.769 19.6273C102.525 17.7982 101.079 16.7692 99.2662 17.1247C97.7819 17.4157 96.9472 18.3785 96.8568 19.982C96.807 20.8508 96.8299 21.7236 96.8291 22.5941C96.8274 24.6773 96.8242 26.7598 96.838 28.8431C96.8405 29.1945 96.7369 29.3179 96.375 29.3106C95.3056 29.2893 94.2362 29.3032 93.104 29.3032L93.1024 29.304Z" fill="white"/>
<path d="M134.057 19.1399C134.057 16.8924 134.049 14.6448 134.065 12.3981C134.067 12.0025 133.98 11.8505 133.549 11.8627C132.395 11.8946 131.24 11.8676 130.085 11.8807C129.803 11.884 129.702 11.7949 129.707 11.5072C129.723 10.8125 129.725 10.1178 129.706 9.42313C129.697 9.11828 129.826 9.06434 130.094 9.06515C131.791 9.07496 133.489 9.07087 135.188 9.07087C137.334 9.07087 139.48 9.07823 141.627 9.06352C141.984 9.06107 142.104 9.1665 142.09 9.52774C142.063 10.153 142.064 10.7815 142.086 11.4067C142.099 11.7516 142.014 11.8856 141.635 11.8766C140.481 11.8505 139.326 11.8791 138.171 11.8611C137.844 11.8562 137.745 11.9706 137.745 12.2836C137.75 16.8736 137.749 21.4643 137.742 26.0542C137.742 26.3468 137.852 26.4228 138.129 26.4203C139.297 26.4081 140.466 26.4285 141.633 26.4073C142 26.4007 142.101 26.525 142.087 26.878C142.062 27.558 142.067 28.2396 142.082 28.9204C142.088 29.1959 141.983 29.2711 141.725 29.2703C137.827 29.2662 133.928 29.267 130.029 29.2735C129.777 29.2735 129.7 29.1812 129.705 28.936C129.718 28.2282 129.721 27.5196 129.708 26.811C129.702 26.5135 129.799 26.4097 130.107 26.4146C131.276 26.4318 132.444 26.4073 133.612 26.4302C133.979 26.4375 134.065 26.3149 134.062 25.9627C134.048 23.6881 134.055 21.4136 134.055 19.1391L134.057 19.1399Z" fill="white"/>
</svg>
