<svg width="25" height="25" viewBox="0 0 25 25" fill="none" xmlns="http://www.w3.org/2000/svg">
<path d="M4.31351 20.6652C4.77739 21.1297 5.32848 21.498 5.93513 21.7489C6.54178 21.9998 7.19203 22.1283 7.84851 22.1272C8.50514 22.1283 9.15553 21.9998 9.76234 21.7489C10.3691 21.498 10.9204 21.1297 11.3845 20.6652L14.2125 17.8362L12.7985 16.4222L9.97051 19.2512C9.40698 19.8122 8.64419 20.1271 7.84901 20.1271C7.05384 20.1271 6.29104 19.8122 5.72751 19.2512C5.16602 18.6879 4.85072 17.925 4.85072 17.1297C4.85072 16.3343 5.16602 15.5714 5.72751 15.0082L8.55651 12.1802L7.14251 10.7662L4.31351 13.5942C3.37732 14.5326 2.85156 15.8041 2.85156 17.1297C2.85156 18.4552 3.37732 19.7267 4.31351 20.6652ZM19.8695 12.1802C20.8052 11.2415 21.3306 9.97009 21.3306 8.64467C21.3306 7.31925 20.8052 6.04788 19.8695 5.10917C18.9311 4.17298 17.6596 3.64722 16.334 3.64722C15.0084 3.64722 13.737 4.17298 12.7985 5.10917L9.97051 7.93817L11.3845 9.35217L14.2125 6.52317C14.776 5.96216 15.5388 5.6472 16.334 5.6472C17.1292 5.6472 17.892 5.96216 18.4555 6.52317C19.017 7.08644 19.3323 7.84934 19.3323 8.64467C19.3323 9.44 19.017 10.2029 18.4555 10.7662L15.6265 13.5942L17.0405 15.0082L19.8695 12.1802ZM8.5555 17.8373L7.1405 16.4233L15.6275 7.93726L17.0415 9.35226L8.5555 17.8373Z" fill="#13678B"/>
<path d="M4.31351 20.6652C4.77739 21.1297 5.32848 21.498 5.93513 21.7489C6.54178 21.9998 7.19203 22.1283 7.84851 22.1272C8.50514 22.1283 9.15553 21.9998 9.76234 21.7489C10.3691 21.498 10.9204 21.1297 11.3845 20.6652L14.2125 17.8362L12.7985 16.4222L9.97051 19.2512C9.40698 19.8122 8.64419 20.1271 7.84901 20.1271C7.05384 20.1271 6.29104 19.8122 5.72751 19.2512C5.16602 18.6879 4.85072 17.925 4.85072 17.1297C4.85072 16.3343 5.16602 15.5714 5.72751 15.0082L8.55651 12.1802L7.14251 10.7662L4.31351 13.5942C3.37732 14.5326 2.85156 15.8041 2.85156 17.1297C2.85156 18.4552 3.37732 19.7267 4.31351 20.6652ZM19.8695 12.1802C20.8052 11.2415 21.3306 9.97009 21.3306 8.64467C21.3306 7.31925 20.8052 6.04788 19.8695 5.10917C18.9311 4.17298 17.6596 3.64722 16.334 3.64722C15.0084 3.64722 13.737 4.17298 12.7985 5.10917L9.97051 7.93817L11.3845 9.35217L14.2125 6.52317C14.776 5.96216 15.5388 5.6472 16.334 5.6472C17.1292 5.6472 17.892 5.96216 18.4555 6.52317C19.017 7.08644 19.3323 7.84934 19.3323 8.64467C19.3323 9.44 19.017 10.2029 18.4555 10.7662L15.6265 13.5942L17.0405 15.0082L19.8695 12.1802ZM8.5555 17.8373L7.1405 16.4233L15.6275 7.93726L17.0415 9.35226L8.5555 17.8373Z" fill="#13678B"/>
</svg>
