<svg width="77" height="77" viewBox="0 0 77 77" fill="none" xmlns="http://www.w3.org/2000/svg">
<path d="M72.9282 29.3874H68.2789C67.7213 27.6208 67.0071 25.9101 66.1469 24.2682L69.4415 20.9736C70.6777 19.7374 70.6777 17.7313 69.4415 16.4951L60.4856 7.53918C59.2494 6.30298 57.2432 6.30298 56.007 7.53918L52.7125 10.8337C51.0718 9.97361 49.3598 9.25942 47.5933 8.70183V4.05363C47.5933 2.30492 46.1756 0.887207 44.4269 0.887207H31.76C30.0113 0.887207 28.5936 2.30492 28.5936 4.05363V8.70183C26.8259 9.25942 25.1152 9.97361 23.4744 10.8337L20.1799 7.53918C18.9437 6.30298 16.9375 6.30298 15.7013 7.53918L6.74545 16.4951C5.50925 17.7313 5.50925 19.7374 6.74545 20.9736L10.04 24.2682C9.17987 25.9101 8.46568 27.6208 7.90809 29.3874H3.2587C1.51 29.3874 0.0922852 30.8051 0.0922852 32.5538V45.2206C0.0922852 46.9694 1.51 48.3871 3.2587 48.3871H7.9069C8.46449 50.1548 9.17869 51.8655 10.0388 53.5062L6.74426 56.8008C5.50806 58.037 5.50806 60.0431 6.74426 61.2793L15.7002 70.2352C16.9364 71.4714 18.9425 71.4714 20.1787 70.2352L23.4732 66.9407C25.114 67.8008 26.8259 68.515 28.5924 69.0726V73.7208C28.5924 75.4695 30.0101 76.8872 31.7588 76.8872H44.4257C46.1744 76.8872 47.5921 75.4695 47.5921 73.7208V69.0726C49.3586 68.515 51.0706 67.8008 52.7113 66.9407L56.0059 70.2352C57.2421 71.4714 59.2482 71.4714 60.4844 70.2352L69.4403 61.2793C70.6765 60.0431 70.6765 58.037 69.4403 56.8008L66.1458 53.5062C67.0059 51.8655 67.7201 50.1536 68.2777 48.3871H72.9259C74.6746 48.3871 76.0923 46.9694 76.0923 45.2206V32.5538C76.0923 30.8051 74.6746 29.3874 72.9259 29.3874H72.9282ZM38.0929 61.8096C25.4367 61.8096 15.1722 51.5452 15.1722 38.8878C15.1722 26.2304 25.4367 15.9672 38.0929 15.9672C50.7491 15.9672 61.0147 26.2316 61.0147 38.8878C61.0147 51.544 50.7502 61.8096 38.0929 61.8096Z" fill="#13678B"/>
</svg>
