<svg width="49" height="49" viewBox="0 0 49 49" fill="none" xmlns="http://www.w3.org/2000/svg">
<path d="M46.0939 18.8873H43.1575C42.8053 17.7716 42.3542 16.6911 41.811 15.6541L43.8918 13.5734C44.6725 12.7926 44.6725 11.5256 43.8918 10.7448L38.2354 5.08845C37.4547 4.3077 36.1876 4.3077 35.4069 5.08845L33.3261 7.16922C32.2898 6.62599 31.2086 6.17492 30.0929 5.82276V2.88705C30.0929 1.7826 29.1975 0.887207 28.0931 0.887207H20.093C18.9885 0.887207 18.0931 1.7826 18.0931 2.88705V5.82276C16.9767 6.17492 15.8962 6.62599 14.86 7.16922L12.7792 5.08845C11.9984 4.3077 10.7314 4.3077 9.95064 5.08845L4.29428 10.7448C3.51353 11.5256 3.51353 12.7926 4.29428 13.5734L6.37504 15.6541C5.83181 16.6911 5.38074 17.7716 5.02858 18.8873H2.09213C0.987682 18.8873 0.0922852 19.7827 0.0922852 20.8871V28.8873C0.0922852 29.9917 0.987682 30.8871 2.09213 30.8871H5.02783C5.37999 32.0035 5.83107 33.084 6.3743 34.1203L4.29353 36.201C3.51278 36.9818 3.51278 38.2489 4.29353 39.0296L9.94989 44.686C10.7306 45.4667 11.9977 45.4667 12.7784 44.686L14.8592 42.6052C15.8955 43.1484 16.9767 43.5995 18.0924 43.9517V46.8874C18.0924 47.9918 18.9878 48.8872 20.0922 48.8872H28.0923C29.1968 48.8872 30.0922 47.9918 30.0922 46.8874V43.9517C31.2079 43.5995 32.2891 43.1484 33.3254 42.6052L35.4061 44.686C36.1869 45.4667 37.4539 45.4667 38.2347 44.686L43.891 39.0296C44.6718 38.2489 44.6718 36.9818 43.891 36.201L41.8103 34.1203C42.3535 33.084 42.8046 32.0028 43.1567 30.8871H46.0924C47.1969 30.8871 48.0923 29.9917 48.0923 28.8873V20.8871C48.0923 19.7827 47.1969 18.8873 46.0924 18.8873H46.0939ZM24.0927 39.3645C16.0993 39.3645 9.61646 32.8817 9.61646 24.8876C9.61646 16.8935 16.0993 10.4114 24.0927 10.4114C32.086 10.4114 38.5696 16.8942 38.5696 24.8876C38.5696 32.881 32.0868 39.3645 24.0927 39.3645Z" fill="#13678B"/>
</svg>
