<svg width="19" height="19" viewBox="0 0 19 19" fill="none" xmlns="http://www.w3.org/2000/svg">
<path d="M17.3429 7.63724H16.2417C16.1097 7.21886 15.9405 6.81369 15.7368 6.42481L16.5171 5.64452C16.8099 5.35174 16.8099 4.87659 16.5171 4.58381L14.396 2.46267C14.1032 2.16989 13.628 2.16989 13.3353 2.46267L12.555 3.24296C12.1664 3.03925 11.7609 2.8701 11.3425 2.73804V1.63715C11.3425 1.22298 11.0068 0.887207 10.5926 0.887207H7.59254C7.17837 0.887207 6.8426 1.22298 6.8426 1.63715V2.73804C6.42394 2.8701 6.01876 3.03925 5.63016 3.24296L4.84988 2.46267C4.55709 2.16989 4.08195 2.16989 3.78917 2.46267L1.66803 4.58381C1.37525 4.87659 1.37525 5.35174 1.66803 5.64452L2.44832 6.42481C2.24461 6.81369 2.07546 7.21886 1.9434 7.63724H0.842227C0.428059 7.63724 0.0922852 7.97302 0.0922852 8.38719V11.3872C0.0922852 11.8014 0.428059 12.1372 0.842227 12.1372H1.94311C2.07518 12.5558 2.24433 12.961 2.44804 13.3496L1.66775 14.1299C1.37497 14.4227 1.37497 14.8978 1.66775 15.1906L3.78889 17.3117C4.08167 17.6045 4.55681 17.6045 4.84959 17.3117L5.62988 16.5315C6.01848 16.7352 6.42394 16.9043 6.84232 17.0364V18.1373C6.84232 18.5514 7.17809 18.8872 7.59226 18.8872H10.5923C11.0065 18.8872 11.3422 18.5514 11.3422 18.1373V17.0364C11.7606 16.9043 12.1661 16.7352 12.5547 16.5315L13.335 17.3117C13.6278 17.6045 14.1029 17.6045 14.3957 17.3117L16.5168 15.1906C16.8096 14.8978 16.8096 14.4227 16.5168 14.1299L15.7365 13.3496C15.9402 12.961 16.1094 12.5556 16.2415 12.1372H17.3423C17.7565 12.1372 18.0923 11.8014 18.0923 11.3872V8.38719C18.0923 7.97302 17.7565 7.63724 17.3423 7.63724H17.3429ZM9.09242 15.3162C6.09491 15.3162 3.66385 12.8851 3.66385 9.88735C3.66385 6.88955 6.09491 4.45877 9.09242 4.45877C12.0899 4.45877 14.5213 6.88983 14.5213 9.88735C14.5213 12.8849 12.0902 15.3162 9.09242 15.3162Z" fill="#D0FFA3"/>
</svg>
