<svg width="117" height="20" viewBox="0 0 117 20" fill="none" xmlns="http://www.w3.org/2000/svg">
<g clip-path="url(#clip0_298_583)">
<path d="M9.16328 1.49955C9.50703 0.683092 10.6778 0.683093 11.0215 1.49955L13.0503 6.31844C13.1953 6.66264 13.523 6.89782 13.8991 6.92761L19.1651 7.34468C20.0573 7.41535 20.4191 8.51534 19.7393 9.09061L15.7272 12.4859C15.4406 12.7284 15.3154 13.109 15.403 13.4715L16.6287 18.5482C16.8364 19.4083 15.8893 20.0882 15.1254 19.6273L10.6169 16.9068C10.2949 16.7124 9.88991 16.7124 9.56788 16.9068L5.0594 19.6273C4.29552 20.0882 3.34836 19.4083 3.55604 18.5482L4.78183 13.4715C4.86938 13.109 4.74423 12.7284 4.45766 12.4859L0.445469 9.09061C-0.234311 8.51534 0.127475 7.41535 1.0197 7.34468L6.28576 6.92761C6.66191 6.89782 6.98956 6.66264 7.13447 6.31844L9.16328 1.49955Z" fill="#012130"/>
<path d="M33.1633 1.49955C33.507 0.683092 34.6778 0.683093 35.0215 1.49955L37.0503 6.31844C37.1953 6.66264 37.523 6.89782 37.8991 6.92761L43.1651 7.34468C44.0573 7.41535 44.4191 8.51534 43.7393 9.09061L39.7272 12.4859C39.4406 12.7284 39.3154 13.109 39.403 13.4715L40.6287 18.5482C40.8364 19.4083 39.8893 20.0882 39.1254 19.6273L34.6169 16.9068C34.2949 16.7124 33.8899 16.7124 33.5679 16.9068L29.0594 19.6273C28.2955 20.0882 27.3484 19.4083 27.556 18.5482L28.7818 13.4715C28.8694 13.109 28.7442 12.7284 28.4577 12.4859L24.4455 9.09061C23.7657 8.51534 24.1275 7.41535 25.0197 7.34468L30.2858 6.92761C30.6619 6.89782 30.9896 6.66264 31.1345 6.31844L33.1633 1.49955Z" fill="#012130"/>
<path d="M57.1632 1.49955C57.5069 0.683092 58.6777 0.683093 59.0214 1.49955L61.0502 6.31844C61.1952 6.66264 61.5228 6.89782 61.899 6.92761L67.165 7.34468C68.0572 7.41535 68.4189 8.51534 67.7392 9.09061L63.7271 12.4859C63.4405 12.7284 63.3153 13.109 63.4028 13.4715L64.6286 18.5482C64.8363 19.4083 63.8892 20.0882 63.1253 19.6273L58.6168 16.9068C58.2948 16.7124 57.8898 16.7124 57.5678 16.9068L53.0593 19.6273C52.2954 20.0882 51.3482 19.4083 51.5559 18.5482L52.7817 13.4715C52.8693 13.109 52.7441 12.7284 52.4575 12.4859L48.4453 9.09061C47.7656 8.51534 48.1274 7.41535 49.0196 7.34468L54.2856 6.92761C54.6618 6.89782 54.9894 6.66264 55.1344 6.31844L57.1632 1.49955Z" fill="#012130"/>
<path d="M81.1632 1.49955C81.5069 0.683092 82.6777 0.683093 83.0214 1.49955L85.0502 6.31844C85.1952 6.66264 85.5228 6.89782 85.899 6.92761L91.165 7.34468C92.0572 7.41535 92.4189 8.51534 91.7392 9.09061L87.7271 12.4859C87.4405 12.7284 87.3153 13.109 87.4028 13.4715L88.6286 18.5482C88.8363 19.4083 87.8892 20.0882 87.1253 19.6273L82.6168 16.9068C82.2948 16.7124 81.8898 16.7124 81.5678 16.9068L77.0593 19.6273C76.2954 20.0882 75.3482 19.4083 75.5559 18.5482L76.7817 13.4715C76.8693 13.109 76.7441 12.7284 76.4575 12.4859L72.4453 9.09061C71.7656 8.51534 72.1274 7.41535 73.0196 7.34468L78.2856 6.92761C78.6618 6.89782 78.9894 6.66264 79.1344 6.31844L81.1632 1.49955Z" fill="#012130"/>
<path d="M105.163 1.49955C105.507 0.683092 106.678 0.683093 107.021 1.49955L109.05 6.31844C109.195 6.66264 109.523 6.89782 109.899 6.92761L115.165 7.34468C116.057 7.41535 116.419 8.51534 115.739 9.09061L111.727 12.4859C111.44 12.7284 111.315 13.109 111.403 13.4715L112.628 18.5482C112.836 19.4083 111.889 20.0882 111.125 19.6273L106.617 16.9068C106.295 16.7124 105.89 16.7124 105.568 16.9068L101.059 19.6273C100.295 20.0882 99.3481 19.4083 99.5558 18.5482L100.782 13.4715C100.869 13.109 100.744 12.7284 100.457 12.4859L96.4452 9.09061C95.7654 8.51534 96.1272 7.41535 97.0195 7.34468L102.286 6.92761C102.662 6.89782 102.989 6.66264 103.134 6.31844L105.163 1.49955Z" fill="#012130"/>
</g>
<defs>
<clipPath id="clip0_298_583">
<rect width="116" height="18.8889" fill="white" transform="translate(0.0924072 0.887207)"/>
</clipPath>
</defs>
</svg>
