<svg width="308" height="526" viewBox="0 0 308 526" fill="none" xmlns="http://www.w3.org/2000/svg">
<path d="M35.177 231.211L32.5586 277.818C109.45 284.511 169.788 349.039 169.788 427.667C169.788 434.769 169.264 441.755 168.306 448.601C170.427 452.778 173.696 457.019 178.78 460.531C192.958 470.34 204.325 473.61 212.116 468.808C214.939 455.537 216.434 441.781 216.434 427.68C216.434 324.157 136.617 239.283 35.1642 231.224L35.177 231.211Z" fill="url(#paint0_linear_237_101)"/>
<path d="M281.715 223.892C280.284 223.483 283.764 223.253 282.206 223.253H221.682C212.639 223.253 205.295 230.584 205.295 239.627V263.678C196.15 266.565 187.298 270.256 178.817 274.701L161.779 257.662C155.38 251.263 145.008 251.263 138.609 257.662L92.2827 303.989C85.8836 310.388 85.8836 320.759 92.2827 327.158L109.321 344.197C104.877 352.691 101.172 361.542 98.2859 370.675H74.235C65.1919 370.675 57.8477 378.006 57.8477 387.049V404.292C73.4814 417.691 91.7846 432.622 110.956 446.659C124.687 456.724 136.489 465.882 146.464 473.942C139.107 459.291 134.79 443.249 133.858 426.619C133.73 424.397 133.653 422.098 133.653 419.811C133.653 409.261 135.007 398.851 137.689 388.786C141.521 374.264 147.997 360.725 156.938 348.54C171.384 328.832 191.066 314.143 213.955 306.007C226.868 301.396 240.471 299.046 254.419 299.046C272.952 299.046 284.527 303.248 300.237 310.746C298.117 280.921 289.187 251.876 281.689 223.879L281.715 223.892Z" fill="url(#paint1_linear_237_101)"/>
<path d="M307.54 344.759C307.54 369.334 305.611 393.474 301.92 417.014C301.307 420.923 298.625 424.205 294.933 425.597C259.195 439.124 226.587 459.075 198.512 484.007C195.294 486.868 190.402 486.523 187.656 483.189C185.446 480.494 183.224 477.876 181.027 475.347C176.237 469.816 171.562 464.72 167.334 460.237L164.946 457.542C162.902 455.332 163.043 451.871 165.253 449.827L168.101 447.196C174.589 441.474 181.282 436.007 188.154 430.783C207.926 415.75 229.243 402.811 251.826 392.159C255.364 390.485 257.778 387.062 258.135 383.167C259.298 370.407 259.898 357.57 259.898 344.759C259.898 242.042 221.669 143.181 153.77 67.3374C85.8705 143.181 47.642 242.042 47.642 344.759C47.642 357.57 48.2423 370.407 49.4046 383.179C49.7622 387.075 52.189 390.498 55.7398 392.171C63.3779 395.773 70.8754 399.656 78.2197 403.782C93.6235 412.608 114.417 426.939 129.962 439.136C135.479 443.671 140.882 448.371 146.132 453.237C146.541 453.621 146.975 453.953 147.422 454.259C154.434 461.514 167.935 475.143 180.835 490.981C183.339 494.059 183.198 498.529 180.439 501.39C174.155 507.943 168.152 514.763 162.455 521.839C157.972 527.395 149.555 527.383 145.072 521.827C110.56 478.962 64.9489 445.408 12.6194 425.597C8.91531 424.205 6.23305 420.923 5.61997 417.014C1.92867 393.474 0 369.334 0 344.759C0 207.837 59.38 84.7721 153.77 0C248.16 84.7721 307.54 207.837 307.54 344.759Z" fill="url(#paint2_linear_237_101)"/>
<defs>
<linearGradient id="paint0_linear_237_101" x1="19.9009" y1="225.936" x2="228.568" y2="434.603" gradientUnits="userSpaceOnUse">
<stop stop-color="#D0FFA3"/>
<stop offset="0.906667" stop-color="#00698B"/>
</linearGradient>
<linearGradient id="paint1_linear_237_101" x1="135.748" y1="246.461" x2="236.588" y2="421.114" gradientUnits="userSpaceOnUse">
<stop stop-color="#D0FFA3"/>
<stop offset="1" stop-color="#00698B"/>
</linearGradient>
<linearGradient id="paint2_linear_237_101" x1="153.77" y1="0" x2="153.77" y2="526.003" gradientUnits="userSpaceOnUse">
<stop stop-color="#D0FFA3"/>
<stop offset="1" stop-color="#00698B"/>
</linearGradient>
</defs>
</svg>
